<svg xmlns="http://www.w3.org/2000/svg" viewBox="0 0 1216 782.42">
  <defs>
    <style>
        svg{
            margin-left:15%;
        }
        .cls-1 {
            fill: #fff;
        }
        .cls-2 {
            fill: #00a796;
        }
    </style>
  </defs>
  <g id="BorderBox">
    <path class="cls-1" d="M782.42,653.58V273.49a152.69,152.69,0,0,0-152.7-152.7h-477A152.69,152.69,0,0,0,0,273.49v477a152.69,152.69,0,0,0,152.7,152.7h477A154,154,0,0,0,648.8,902H1024ZM341,820H206.33A124.23,124.23,0,0,1,82.09,695.77v-139H227.64v75.89a41.59,41.59,0,0,0,41.59,41.59H341Zm0-471.17H269.23a41.59,41.59,0,0,0-41.59,41.59v69.65H82.09V324.4A124.23,124.23,0,0,1,206.33,200.17H341Zm361,111.24H553.05V390.42a41.59,41.59,0,0,0-41.59-41.59H438.69V200.17h139A124.23,124.23,0,0,1,701.93,324.4Z" transform="translate(0 -120.79)"/>
  </g>
  <g id="TailBox">
    <path class="cls-2" d="M553.92,537.17V635a38.18,38.18,0,0,1-38.18,38.17H438.69V818H824.74Z" transform="translate(0 -120.79)"/>
  </g>
</svg>
