<svg xmlns="http://www.w3.org/2000/svg" viewBox="0 0 1221.86 782.42">
  <defs>
    <style>
      .cls-1 {
        fill: #fff;
      }

      .cls-2 {
        opacity: 0;
      }

      .cls-3 {
        fill: #00a796;
      }
    </style>
  </defs>
  <g id="BorderBox">
    <path class="cls-1" d="M974.41,653.58V273.49a152.7,152.7,0,0,0-152.7-152.7h-477A152.69,152.69,0,0,0,192,273.49v477a152.69,152.69,0,0,0,152.69,152.7h477A153.77,153.77,0,0,0,840.78,902H1216ZM533,820H398.32A124.23,124.23,0,0,1,274.08,695.77v-139H419.63v75.89a41.59,41.59,0,0,0,41.58,41.59H533Zm0-471.17H461.21a41.59,41.59,0,0,0-41.58,41.59v69.65H274.08V324.4A124.23,124.23,0,0,1,398.32,200.17H533Zm361,111.24H745V390.42a41.58,41.58,0,0,0-41.58-41.59H630.67V200.17h139A124.23,124.23,0,0,1,893.92,324.4Z" transform="translate(5.88 -120.79)"/>
  </g>
  <g id="Padding">
    <g class="cls-2">
      <path class="cls-1" d="M-.08,514.59c7.72,0,7.73-12,0-12s-7.73,12,0,12Z" transform="translate(5.88 -120.79)"/>
    </g>
  </g>
  <g id="TailBox">
    <path class="cls-3" d="M745.9,537.17V635a38.17,38.17,0,0,1-38.17,38.17H630.67V818h386.06Z" transform="translate(5.88 -120.79)"/>
  </g>
</svg>
